# xmcd
# 
# Track frame offsets:
#     150
#     19266
#     36131
#     53014
#     70590
#     83781
#     103471
#     126159
#     142384
#     157716
#     175215
#     190670
# 
# Disc length: 2915
# 
# Revision: 1
# Processed by: cddbd v1.5.2PL0 Copyright (c) Steve Scherf et al.
# Submitted via: fre:ac v1.1beta1pre3
# 
DISCID=a00b610c
DTITLE=Aloe Blacc - Lift Your Spirit ( Deluxe Edition )
DYEAR=2014
DGENRE=R&B
TTITLE0=The Man
TTITLE1=Love Is The Answer
TTITLE2=Wake Me Up ( Acoustic )
TTITLE3=Here Today
TTITLE4=Can You Do This
TTITLE5=Chasing
TTITLE6=The Hand Is Quicker
TTITLE7=Ticking Bomb
TTITLE8=Red Velvet Seat
TTITLE9=Owe It All
TTITLE10=Lift Your Spirit
TTITLE11=Eyes Of A Child
EXTD=
EXTT0=
EXTT1=
EXTT2=
EXTT3=
EXTT4=
EXTT5=
EXTT6=
EXTT7=
EXTT8=
EXTT9=
EXTT10=
EXTT11=
PLAYORDER=
